# xmcd
#
# Track frame offsets: 
#        150
#        3546
#        14567
#        29034
#        41430
#        54287
#        72122
#        86542
#        103344
#        114988
#        134020
#        141341
#        158059
#        183668
#
# Disc length: 2496 seconds
#
# Revision: 0
# Processed by: cddbd v1.5.1PL0 Copyright (c) Steve Scherf et al.
# Submitted via: ExactAudioCopy v0.95a5
#
DISCID=c409be0e
DTITLE=Runaway Planet - No Part of Nothin'
DYEAR=2004
DGENRE=Bluegrass
TTITLE0=St. James Infirmary Blues
TTITLE1=Here I Go
TTITLE2=Who's Gonna Work the Farm?
TTITLE3=Burn the Clutch Out
TTITLE4=Herbal Tea
TTITLE5=Long Way to Memphis
TTITLE6=Walkin' Blues
TTITLE7=Red Barn
TTITLE8=Happy Man Blues
TTITLE9=Lonely Drifter
TTITLE10=Don't be a Stranger
TTITLE11=West IO
TTITLE12=Movin' On
TTITLE13=St. James Infirmary Blues (Reprise)
EXTD=
EXTT0=
EXTT1=
EXTT2=
EXTT3=
EXTT4=
EXTT5=
EXTT6=
EXTT7=
EXTT8=
EXTT9=
EXTT10=
EXTT11=
EXTT12=
EXTT13=
PLAYORDER=
